#N canvas 20 44 924 978 12;
#X obj 338 114 inlet;
#X obj 239 463 metro;
#X obj 218 124 inlet;
#X obj 239 604 outlet;
#X floatatom 355 418 5 0 0 0 - - - 0;
#X obj 342 270 /;
#X floatatom 320 220 5 0 0 0 - - - 0;
#X msg 395 183 60000;
#X obj 489 226 loadbang;
#X obj 517 284 bng 15 250 50 0 empty empty empty 17 7 0 10 #fcfcfc
#000000 #000000;
#X msg 519 355 -1;
#X obj 531 506 int 1;
#X obj 244 332 sel 0;
#X obj 331 607 outlet;
#X obj 631 511 + 1;
#X obj 395 141 loadbang;
#X obj 393 231 bng 15 250 50 0 empty empty empty 17 7 0 10 #fcfcfc
#000000 #000000;
#X connect 0 0 5 1;
#X connect 0 0 16 0;
#X connect 1 0 3 0;
#X connect 1 0 11 0;
#X connect 2 0 1 0;
#X connect 2 0 12 0;
#X connect 4 0 1 1;
#X connect 5 0 4 0;
#X connect 6 0 5 0;
#X connect 7 0 6 0;
#X connect 8 0 9 0;
#X connect 9 0 10 0;
#X connect 10 0 11 0;
#X connect 11 0 14 0;
#X connect 11 0 13 0;
#X connect 12 0 10 0;
#X connect 14 0 11 1;
#X connect 15 0 7 0;
#X connect 16 0 5 0;
