#N canvas 0 24 1914 1018 12;
#X obj -68 -62 inlet;
#X obj -69 522 phasor~;
#X obj 31 516 phasor~;
#X obj 117 513 phasor~;
#X obj 230 510 phasor~;
#X obj 159 786 hip~ 250;
#X obj 162 721 lop~ 50;
#X obj 548 881 outlet~;
#X obj 349 812 line;
#X obj 225 876 *~;
#X obj 545 485 phasor~;
#X obj 645 479 phasor~;
#X obj 731 476 phasor~;
#X obj 844 473 phasor~;
#X obj 713 753 hip~ 250;
#X obj 699 680 lop~ 50;
#X obj 940 762 line;
#X obj 767 827 *~;
#X obj 548 836 +~;
#X obj 309 60 tgl 30 0 empty empty empty 17 7 0 10 #fcfcfc #000000
#000000 0 1;
#X floatatom -48 433 5 0 0 0 - - - 0;
#X floatatom 27 435 5 0 0 0 - - - 0;
#X floatatom 94 437 5 0 0 0 - - - 0;
#X obj -10 379 unpack f f f f;
#X floatatom 151 438 5 0 0 0 - - - 0;
#X obj 1354 557 pack f f f f;
#X obj 1319 599 print;
#X floatatom 1341 495 5 0 0 0 - - - 0;
#X floatatom 1397 494 5 0 0 0 - - - 0;
#X floatatom 1457 496 5 0 0 0 - - - 0;
#X floatatom 1509 498 5 0 0 0 - - - 0;
#X obj 1840 515 print;
#X obj 1468 366 mtof;
#X msg 1249 266 44;
#X msg 1446 269 51;
#X obj 1266 325 + 12;
#X obj 1465 320 + 12;
#X obj 1361 323 + 24;
#X obj 1580 359 mtof;
#X obj 1574 312 + 12;
#X msg 1558 262 32;
#X obj 1366 374 mtof;
#X obj 1272 373 mtof;
#X obj 1429 129 bng 15 250 50 0 empty empty empty 17 7 0 10 #fcfcfc
#000000 #000000;
#X msg 1353 260 20;
#X obj 16 -60 inlet;
#X obj 89 -57 inlet;
#X obj 90 -10 s stopSound;
#X obj 488 692 r stopSound;
#X msg 481 756 0 100;
#X obj 1059 660 r stopSound;
#X msg 1052 724 0 100;
#X obj -6 -12 s switchTime;
#X obj 374 631 r switchTime;
#X obj 337 735 pack f f;
#X floatatom 395 682 5 0 0 0 - - - 0;
#X obj 979 583 r switchTime;
#X obj 942 687 pack f f;
#X floatatom 1000 634 5 0 0 0 - - - 0;
#X obj 778 1019 1;
#X obj 297 182 list prepend;
#X obj -46 23 t l b;
#X obj 297 207 route 0 1;
#X floatatom 573 379 5 0 0 0 - - - 0;
#X floatatom 648 381 5 0 0 0 - - - 0;
#X floatatom 716 387 5 0 0 0 - - - 0;
#X obj 611 325 unpack f f f f;
#X floatatom 772 384 5 0 0 0 - - - 0;
#X obj 266 279 t l b;
#X msg 281 670 1;
#X msg 329 671 0;
#X msg 865 626 1;
#X msg 913 627 0;
#X obj 409 253 t l b;
#X floatatom 295 851 5 0 0 0 - - - 0;
#X floatatom 906 835 5 0 0 0 - - - 0;
#X connect 0 0 61 0;
#X connect 1 0 6 0;
#X connect 2 0 6 0;
#X connect 3 0 6 0;
#X connect 4 0 6 0;
#X connect 5 0 9 0;
#X connect 6 0 5 0;
#X connect 8 0 74 0;
#X connect 9 0 18 0;
#X connect 10 0 15 0;
#X connect 11 0 15 0;
#X connect 12 0 15 0;
#X connect 13 0 15 0;
#X connect 14 0 17 0;
#X connect 15 0 14 0;
#X connect 16 0 75 0;
#X connect 17 0 18 1;
#X connect 18 0 7 0;
#X connect 19 0 60 1;
#X connect 20 0 1 0;
#X connect 21 0 2 0;
#X connect 22 0 3 0;
#X connect 23 0 20 0;
#X connect 23 1 21 0;
#X connect 23 2 22 0;
#X connect 23 3 24 0;
#X connect 24 0 4 0;
#X connect 25 0 26 0;
#X connect 27 0 25 0;
#X connect 28 0 25 1;
#X connect 29 0 25 2;
#X connect 30 0 25 3;
#X connect 32 0 29 0;
#X connect 33 0 35 0;
#X connect 34 0 36 0;
#X connect 35 0 42 0;
#X connect 36 0 32 0;
#X connect 37 0 41 0;
#X connect 38 0 30 0;
#X connect 39 0 38 0;
#X connect 40 0 39 0;
#X connect 41 0 28 0;
#X connect 42 0 27 0;
#X connect 43 0 33 0;
#X connect 43 0 44 0;
#X connect 43 0 34 0;
#X connect 43 0 40 0;
#X connect 44 0 37 0;
#X connect 45 0 52 0;
#X connect 46 0 47 0;
#X connect 48 0 49 0;
#X connect 49 0 8 0;
#X connect 50 0 51 0;
#X connect 51 0 16 0;
#X connect 53 0 55 0;
#X connect 54 0 8 0;
#X connect 55 0 54 1;
#X connect 56 0 58 0;
#X connect 57 0 16 0;
#X connect 58 0 57 1;
#X connect 60 0 62 0;
#X connect 61 0 60 0;
#X connect 61 1 19 0;
#X connect 62 0 68 0;
#X connect 62 1 73 0;
#X connect 63 0 10 0;
#X connect 64 0 11 0;
#X connect 65 0 12 0;
#X connect 66 0 63 0;
#X connect 66 1 64 0;
#X connect 66 2 65 0;
#X connect 66 3 67 0;
#X connect 67 0 13 0;
#X connect 68 0 23 0;
#X connect 68 1 69 0;
#X connect 68 1 72 0;
#X connect 69 0 54 0;
#X connect 70 0 54 0;
#X connect 71 0 57 0;
#X connect 72 0 57 0;
#X connect 73 0 66 0;
#X connect 73 1 70 0;
#X connect 73 1 71 0;
#X connect 74 0 9 1;
#X connect 75 0 17 1;
