#N canvas 970 44 924 460 12;
#X obj 209 145 inlet;
#X obj 276 146 inlet;
#X obj 342 147 inlet;
#X floatatom 276 171 5 0 0 0 - - - 0;
#X floatatom 342 172 5 0 0 0 - - - 0;
#X obj 224 229 >=;
#X obj 224 279 &&;
#X obj 257 230 <=;
#X obj 224 304 outlet;
#X connect 0 0 5 0;
#X connect 0 0 7 0;
#X connect 1 0 3 0;
#X connect 2 0 4 0;
#X connect 3 0 5 1;
#X connect 4 0 7 1;
#X connect 5 0 6 0;
#X connect 6 0 8 0;
#X connect 7 0 6 1;
