#N canvas 970 44 924 460 12;
#X obj 319 152 inlet;
#X obj 284 248 until;
#X obj 297 331 list store;
#X obj 284 273 f;
#X obj 322 274 + 1;
#X msg 341 248 0, f 2;
#X msg 284 304 get \$1 1;
#X obj 301 435 list store;
#X msg 226 395 append \$1;
#X obj 318 215 t b b l b;
#X obj 235 358 mtof;
#X obj 303 460 outlet;
#X connect 0 0 9 0;
#X connect 1 0 3 0;
#X connect 2 0 10 0;
#X connect 2 1 1 1;
#X connect 2 1 7 0;
#X connect 3 0 4 0;
#X connect 3 0 6 0;
#X connect 4 0 3 1;
#X connect 5 0 3 1;
#X connect 6 0 2 0;
#X connect 7 0 11 0;
#X connect 8 0 7 0;
#X connect 9 0 1 0;
#X connect 9 1 5 0;
#X connect 9 2 2 1;
#X connect 9 3 7 1;
#X connect 10 0 8 0;
