#N canvas 20 44 924 978 12;
#X obj 153 45 inlet;
#X obj 265 44 inlet;
#X obj 218 498 outlet;
#X floatatom 331 120 5 0 0 0 - - - 0;
#X obj 332 83 list length;
#X floatatom 226 401 5 0 0 0 - - - 0;
#X obj 272 155 random;
#X obj 187 313 list store;
#X floatatom 216 185 5 0 0 0 - - - 0;
#X msg 182 238 get \$1 1;
#X connect 0 0 6 0;
#X connect 1 0 4 0;
#X connect 1 0 7 1;
#X connect 3 0 6 1;
#X connect 4 0 3 0;
#X connect 5 0 2 0;
#X connect 6 0 8 0;
#X connect 7 0 5 0;
#X connect 8 0 9 0;
#X connect 9 0 7 0;
