#N canvas 20 44 924 978 12;
#X obj 241 1754 dac~;
#X obj 33 4531 rev1~;
#X obj 1422 678 BPM;
#X obj 1136 455 tgl 40 0 empty empty CLICK\\\ TO\\\ START 50 7 0 20
#fcfcfc #000000 #000000 0 1;
#X floatatom 1503 521 5 0 0 0 - - - 0;
#X obj 1379 756 bng 15 250 50 0 empty empty empty 17 7 0 10 #fcfcfc
#000000 #000000;
#X floatatom 1465 749 5 0 0 0 - - - 0;
#X msg -609 516 44;
#X msg -509 510 48;
#X msg -412 519 51;
#X obj -592 575 + 12;
#X obj -393 570 + 12;
#X obj -497 573 + 24;
#X obj -284 562 + 12;
#X msg -300 512 32;
#X obj -71 614 mtof;
#X obj 38 618 mtof;
#X obj 131 600 mtof;
#X msg -44 509 37;
#X msg 54 507 40;
#X msg 156 499 44;
#X obj -76 577 + 12;
#X obj 151 560 + 12;
#X obj 30 561 + 24;
#X obj 243 593 mtof;
#X obj 263 553 + 12;
#X msg 268 492 37;
#X obj -261 321 loadbang;
#X obj -26 919 snapshot~;
#X floatatom -69 979 5 0 0 0 - - - 0;
#X obj -76 884 bng 15 250 50 0 empty empty empty 17 7 0 10 #fcfcfc
#000000 #000000;
#X obj -30 855 osc~ 0.2;
#X obj -271 1381 send~ chord;
#X obj 1146 2085 *~;
#X obj 1307 2027 line;
#X obj 1301 2213 send~ firstTone;
#X obj 938 1536 r beat;
#X floatatom 1106 1724 15 0 0 0 - - - 0;
#X obj 1034 1852 osc~;
#X obj 1150 1800 osc~;
#X obj 1137 1764 * 2;
#X obj 1421 1825 r beat;
#X obj 1165 2133 *~ 0.025;
#X obj 1466 831 sel 0;
#X obj 1463 877 s change;
#X obj 1088 1533 bng 15 250 50 0 empty empty empty 17 7 0 10 #fcfcfc
#000000 #000000;
#X obj 547 1458 r~ firstTone;
#X obj 1246 640 sel 0;
#X obj 1132 776 s stop;
#X obj 1202 694 bng 15 250 50 0 empty empty empty 17 7 0 10 #fcfcfc
#000000 #000000;
#X obj 1595 335 vsl 30 128 15 35 0 0 empty empty SPEED 0 -9 0 10 #ffffff
#00ff04 #000000 0 1;
#X obj -336 1148 chordtone;
#X obj 1098 1695 mtof;
#X obj 1037 1652 randomElement;
#X obj 1466 794 %;
#X floatatom 1690 546 5 0 0 0 - - - 0;
#X obj 1685 331 vsl 30 128 1 4 0 1 empty empty CHORD 0 -9 0 10 #fcfcfc
#00ff04 #000000 0 0;
#X obj 1689 517 * 4;
#X obj 1687 280 loadbang;
#X obj 1603 793 %;
#X obj 1603 818 sel 0;
#X obj 1637 852 s beat;
#X obj 1786 325 vsl 30 128 0 2 0 0 empty empty MELODY 0 -9 0 10 #fcfcfc
#00ff04 #000000 0 1;
#X floatatom 1776 606 5 0 0 0 - - - 0;
#X obj 1591 497 % 36;
#X obj 1688 492 % 5;
#X obj 1877 346 vsl 30 128 200 4000 0 0 empty empty CHORD-CHANGE 0
-9 0 10 #ffffff #00ff04 #000000 0 1;
#X obj 1875 509 s chordChangeTime;
#X obj -337 1028 r chordChangeTime;
#X obj -267 1083 r stop;
#X obj -496 1049 midiListToFreqList;
#X floatatom -579 629 5 0 0 0 - - - 0;
#X obj 1120 1568 r randNotes;
#X msg 2539 1922 64 67 71 76;
#X msg 2210 1926 65 69 74 77;
#X obj 2316 1972 s randNotes;
#X obj -484 959 r chordNotes;
#X obj 3215 972 r change;
#X obj 3119 1178 hradio 15 1 0 3 empty empty empty 0 -8 0 10 #fcfcfc
#000000 #000000 0;
#X obj 3059 946 r stop;
#X msg 3078 1018 -1;
#X obj 3118 1068 int 1;
#X obj 3216 1077 + 1;
#X floatatom 3120 1114 5 0 0 0 - - - 0;
#X obj 2204 1970 s chordNotes;
#X obj 2536 1971 s chordNotes;
#X text 2777 1923 e g h d;
#X text 2436 1924 f a c d;
#X obj 2665 1979 s randNotes;
#X msg 2318 1928 77 81 84 86;
#X msg 2660 1922 76 79 83 86;
#X obj -269 1308 *~ 0.2;
#X obj 1271 327 loadbang;
#X obj 1271 352 s stop;
#X obj 111 1032 noise~;
#X obj -151 1155 bp~ 220 1;
#X floatatom 18 195 5 0 0 0 - - - 0;
#X floatatom 67 195 5 0 0 0 - - - 0;
#X floatatom 115 187 5 0 0 0 - - - 0;
#X floatatom 164 194 5 0 0 0 - - - 0;
#X floatatom 221 187 5 0 0 0 - - - 0;
#X floatatom 277 193 5 0 0 0 - - - 0;
#X floatatom -91 1064 5 0 0 0 - - - 0;
#X obj 44 1194 bp~ 380 1;
#X floatatom 150 1112 5 0 0 0 - - - 0;
#X floatatom 1735 481 5 0 0 0 - - - 0;
#X msg 1741 450 2;
#X obj 1773 526 pow;
#X obj 1773 498 bng 15 250 50 0 empty empty empty 17 7 0 10 #fcfcfc
#000000 #000000;
#X obj 1805 476 % 5;
#X obj -84 1314 *~;
#X obj -74 1294 line;
#X obj -69 1178 r pOne;
#X obj 163 220 s pOne;
#X msg -67 1255 \$1 1000;
#X obj 78 1323 *~;
#X obj 129 1279 line;
#X msg 131 1250 \$1 1000;
#X obj 133 1171 r pTwo;
#X obj 220 220 s pTwo;
#X obj 243 1319 *~;
#X obj 294 1275 line;
#X msg 294 1233 \$1 1000;
#X obj 269 220 s pThree;
#X obj 293 1115 r pThree;
#X obj 209 1190 bp~ 600 1;
#X obj 114 220 s co;
#X obj 1301 1672 r co;
#X obj 293 1140 clip 0 5;
#X obj 133 1196 clip 0 5;
#X obj -69 1203 clip 0 5;
#X obj 160 1495 *~;
#X obj 228 1390 r stop;
#X obj 300 1391 loadbang;
#X msg 245 1429 0;
#X floatatom 202 1462 5 0 0 0 - - - 0;
#X obj 1301 661 sel 1;
#X obj 1301 686 s start;
#X obj 391 1394 r start;
#X msg 391 1419 1;
#X obj 1216 1801 osc~;
#X obj 1203 1765 * 4;
#X obj 1153 1951 *~;
#X obj 1236 1949 *~;
#X obj 1304 1748 clip 0 2000;
#X obj 1252 1830 / 1000;
#X obj 1186 1873 line;
#X obj 1327 1833 / 2000;
#X obj 1277 1895 line;
#X floatatom 1184 1901 5 0 0 0 - - - 0;
#X floatatom 1280 1922 5 0 0 0 - - - 0;
#X floatatom 1301 1697 5 0 0 0 - - - 0;
#X floatatom 1302 1802 5 0 0 0 - - - 0;
#X msg 1252 1855 \$1 1000;
#X msg 1327 1858 \$1 1000;
#X obj 14 59 netreceive 3000;
#X obj 13 -42 r tcpSend;
#X obj 1564 927 s tcpSend;
#X msg 1577 896 send beat;
#X obj 924 1748 s tcpSend;
#X obj 1591 2088 s tcpSend;
#X obj 1540 598 * 1000;
#X obj 1583 555 bng 15 250 50 0 empty empty empty 17 7 0 10 #fcfcfc
#000000 #000000;
#X floatatom 1552 666 5 0 0 0 - - - 0;
#X obj 1552 690 send changeTime;
#X obj 1512 571 /;
#X obj 1403 496 loadbang;
#X floatatom 1403 546 5 0 0 0 - - - 0;
#X msg 1403 521 60;
#X obj 1504 553 bng 15 250 50 0 empty empty empty 17 7 0 10 #fcfcfc
#000000 #000000;
#X obj 1581 634 *;
#X obj 2318 1614 s tcpSend;
#X obj 2420 1476 r changeTime;
#X floatatom 2420 1501 5 0 0 0 - - - 0;
#X msg 2343 1456 breath;
#X obj 2322 1539 pack s f;
#X msg 2319 1572 send \$1 \$2;
#X floatatom 1653 1916 5 0 0 0 - - - 0;
#X msg 1558 1939 noteOFF;
#X msg 1591 2058 send \$1 \$2 \$3;
#X msg 1395 1926 1 1500;
#X msg 1456 1924 0 2500;
#X obj 1482 1869 delay 1500;
#X obj 1624 1982 pack s f 2450;
#X msg 924 1718 send noteON \$1 1450;
#X floatatom 335 199 5 0 0 0 - - - 0;
#X obj 12 231 s temp;
#X obj 68 231 s hum;
#X msg 189 -70 send hello world;
#X obj 190 -20 s tcpSend;
#X text 1875 609 comment;
#X obj 32 1603 r~ chord;
#X obj 3120 1138 % 2;
#X obj 2885 1583 route 0 1;
#X msg 3684 1939 65 69 73 74;
#X msg 4052 1954 64 66 68 74;
#X text 3784 1941 f a c# d;
#X text 4162 1941 e f# a# d;
#X floatatom 399 201 5 0 0 0 - - - 0;
#X obj 335 223 s pFour;
#X obj 401 229 s chordType;
#X obj 65 127 route temp hum co pOne pTwo pThree pFour chordType;
#X obj 3496 983 r chordType;
#X obj 3496 1068 hradio 30 1 0 3 empty empty empty 0 -8 0 10 #fcfcfc
#000000 #000000 0;
#X obj 3221 1279 list prepend;
#X obj 3175 1356 route 0 1 2;
#X msg 3865 1939 77 81 85 86;
#X msg 4247 1940 76 78 80 86;
#X obj 3830 2010 s randNotes;
#X obj 3718 2008 s chordNotes;
#X obj 4050 2009 s chordNotes;
#X obj 4179 2017 s randNotes;
#X obj 3878 1687 route 0 1;
#X msg 2965 1921 65 69 73 74;
#X msg 3333 1936 64 66 68 74;
#X text 3065 1923 f a c# d;
#X text 3443 1923 e f# a# d;
#X msg 3146 1921 77 81 85 86;
#X msg 3528 1922 76 78 80 86;
#X obj 3111 1992 s randNotes;
#X obj 2999 1990 s chordNotes;
#X obj 3331 1991 s chordNotes;
#X obj 3460 1999 s randNotes;
#X obj 3159 1669 route 0 1;
#X obj 1236 1584 bng 15 250 50 0 empty empty empty 17 7 0 10 #fcfcfc
#000000 #000000;
#X msg 1202 1629 440;
#X obj 1144 1498 bng 15 250 50 0 empty empty empty 17 7 0 10 #fcfcfc
#000000 #000000;
#X msg 1031 283 \; pd dsp 1;
#X obj 1195 62 bng 15 250 50 0 empty empty empty 17 7 0 10 #fcfcfc
#000000 #000000;
#X obj 1068 247 r auto_enable;
#X obj 1195 82 s auto_enable;
#X obj 3040 1119 r start;
#X obj 3543 1016 r start;
#X obj 1230 34 loadbang;
#X obj 133 1221 / 5;
#X obj 293 1165 / 5;
#X obj -69 1228 / 5;
#X obj -151 1180 *~ 0;
#X obj 44 1219 *~ 0.03;
#X obj 209 1215 *~ 0.03;
#X connect 2 0 5 0;
#X connect 2 1 6 0;
#X connect 3 0 2 0;
#X connect 3 0 47 0;
#X connect 3 0 136 0;
#X connect 4 0 2 1;
#X connect 4 0 165 1;
#X connect 4 0 169 0;
#X connect 6 0 54 0;
#X connect 6 0 59 0;
#X connect 7 0 10 0;
#X connect 8 0 12 0;
#X connect 9 0 11 0;
#X connect 10 0 71 0;
#X connect 14 0 13 0;
#X connect 18 0 21 0;
#X connect 19 0 23 0;
#X connect 20 0 22 0;
#X connect 21 0 15 0;
#X connect 22 0 17 0;
#X connect 23 0 16 0;
#X connect 25 0 24 0;
#X connect 26 0 25 0;
#X connect 27 0 7 0;
#X connect 27 0 26 0;
#X connect 27 0 20 0;
#X connect 27 0 19 0;
#X connect 27 0 18 0;
#X connect 27 0 14 0;
#X connect 27 0 9 0;
#X connect 27 0 8 0;
#X connect 28 0 29 0;
#X connect 30 0 28 0;
#X connect 31 0 28 0;
#X connect 33 0 42 0;
#X connect 34 0 33 1;
#X connect 36 0 45 0;
#X connect 36 0 53 0;
#X connect 37 0 38 0;
#X connect 37 0 40 0;
#X connect 37 0 141 0;
#X connect 38 0 33 0;
#X connect 39 0 142 0;
#X connect 40 0 39 0;
#X connect 41 0 180 0;
#X connect 41 0 182 0;
#X connect 42 0 35 0;
#X connect 43 0 44 0;
#X connect 46 0 0 0;
#X connect 46 0 0 1;
#X connect 47 0 49 0;
#X connect 49 0 48 0;
#X connect 50 0 64 0;
#X connect 51 0 91 0;
#X connect 52 0 37 0;
#X connect 53 0 52 0;
#X connect 53 0 184 0;
#X connect 53 0 177 0;
#X connect 54 0 43 0;
#X connect 55 0 54 1;
#X connect 55 0 162 0;
#X connect 55 0 170 1;
#X connect 56 0 65 0;
#X connect 57 0 55 0;
#X connect 58 0 56 0;
#X connect 58 0 50 0;
#X connect 58 0 62 0;
#X connect 58 0 66 0;
#X connect 58 0 106 0;
#X connect 59 0 60 0;
#X connect 60 0 61 0;
#X connect 60 0 158 0;
#X connect 62 0 109 0;
#X connect 63 0 59 1;
#X connect 64 0 4 0;
#X connect 65 0 57 0;
#X connect 66 0 67 0;
#X connect 68 0 51 1;
#X connect 69 0 51 2;
#X connect 70 0 51 0;
#X connect 72 0 53 1;
#X connect 73 0 85 0;
#X connect 74 0 84 0;
#X connect 76 0 70 0;
#X connect 77 0 81 0;
#X connect 78 0 174 0;
#X connect 78 0 204 0;
#X connect 79 0 80 0;
#X connect 80 0 81 0;
#X connect 81 0 82 0;
#X connect 81 0 83 0;
#X connect 82 0 81 1;
#X connect 83 0 192 0;
#X connect 89 0 75 0;
#X connect 90 0 88 0;
#X connect 91 0 32 0;
#X connect 92 0 93 0;
#X connect 94 0 95 0;
#X connect 94 0 103 0;
#X connect 94 0 125 0;
#X connect 95 0 237 0;
#X connect 96 0 186 0;
#X connect 97 0 187 0;
#X connect 98 0 126 0;
#X connect 99 0 113 0;
#X connect 100 0 119 0;
#X connect 101 0 123 0;
#X connect 102 0 95 1;
#X connect 103 0 238 0;
#X connect 104 0 103 1;
#X connect 105 0 107 0;
#X connect 106 0 105 0;
#X connect 107 0 63 0;
#X connect 108 0 107 0;
#X connect 109 0 107 1;
#X connect 109 0 108 0;
#X connect 110 0 131 0;
#X connect 111 0 110 1;
#X connect 112 0 130 0;
#X connect 114 0 111 0;
#X connect 115 0 131 0;
#X connect 116 0 115 1;
#X connect 117 0 116 0;
#X connect 118 0 129 0;
#X connect 120 0 131 0;
#X connect 121 0 120 1;
#X connect 122 0 121 0;
#X connect 124 0 128 0;
#X connect 125 0 239 0;
#X connect 127 0 151 0;
#X connect 128 0 235 0;
#X connect 129 0 234 0;
#X connect 130 0 236 0;
#X connect 131 0 0 0;
#X connect 131 0 0 1;
#X connect 132 0 134 0;
#X connect 133 0 134 0;
#X connect 134 0 135 0;
#X connect 135 0 131 1;
#X connect 136 0 137 0;
#X connect 138 0 139 0;
#X connect 139 0 135 0;
#X connect 140 0 143 0;
#X connect 141 0 140 0;
#X connect 142 0 33 0;
#X connect 143 0 33 0;
#X connect 144 0 145 0;
#X connect 144 0 147 0;
#X connect 144 0 152 0;
#X connect 145 0 153 0;
#X connect 146 0 149 0;
#X connect 147 0 154 0;
#X connect 148 0 150 0;
#X connect 149 0 142 1;
#X connect 150 0 143 1;
#X connect 151 0 144 0;
#X connect 153 0 146 0;
#X connect 154 0 148 0;
#X connect 155 0 201 0;
#X connect 156 0 155 0;
#X connect 158 0 157 0;
#X connect 161 0 170 0;
#X connect 162 0 170 0;
#X connect 163 0 164 0;
#X connect 165 0 161 0;
#X connect 166 0 168 0;
#X connect 167 0 165 0;
#X connect 168 0 167 0;
#X connect 169 0 165 0;
#X connect 170 0 163 0;
#X connect 172 0 173 0;
#X connect 173 0 175 1;
#X connect 174 0 175 0;
#X connect 175 0 176 0;
#X connect 176 0 171 0;
#X connect 177 0 183 1;
#X connect 178 0 183 0;
#X connect 179 0 160 0;
#X connect 180 0 34 0;
#X connect 181 0 34 0;
#X connect 182 0 181 0;
#X connect 182 0 178 0;
#X connect 183 0 179 0;
#X connect 184 0 159 0;
#X connect 185 0 199 0;
#X connect 188 0 189 0;
#X connect 191 0 0 0;
#X connect 191 0 0 1;
#X connect 192 0 78 0;
#X connect 193 0 89 0;
#X connect 193 0 74 0;
#X connect 193 1 73 0;
#X connect 193 1 90 0;
#X connect 194 0 209 0;
#X connect 195 0 210 0;
#X connect 198 0 200 0;
#X connect 201 0 96 0;
#X connect 201 1 97 0;
#X connect 201 2 98 0;
#X connect 201 3 99 0;
#X connect 201 4 100 0;
#X connect 201 5 101 0;
#X connect 201 6 185 0;
#X connect 201 7 198 0;
#X connect 202 0 203 0;
#X connect 203 0 204 1;
#X connect 204 0 205 0;
#X connect 205 0 193 0;
#X connect 205 1 223 0;
#X connect 205 2 212 0;
#X connect 206 0 208 0;
#X connect 207 0 211 0;
#X connect 212 0 194 0;
#X connect 212 0 206 0;
#X connect 212 1 195 0;
#X connect 212 1 207 0;
#X connect 213 0 220 0;
#X connect 214 0 221 0;
#X connect 217 0 219 0;
#X connect 218 0 222 0;
#X connect 223 0 213 0;
#X connect 223 0 217 0;
#X connect 223 1 214 0;
#X connect 223 1 218 0;
#X connect 224 0 180 0;
#X connect 224 0 182 0;
#X connect 225 0 37 0;
#X connect 226 0 53 0;
#X connect 226 0 224 0;
#X connect 228 0 230 0;
#X connect 229 0 227 0;
#X connect 229 0 3 0;
#X connect 231 0 78 0;
#X connect 232 0 203 0;
#X connect 233 0 228 0;
#X connect 234 0 117 0;
#X connect 235 0 122 0;
#X connect 236 0 114 0;
#X connect 237 0 110 0;
#X connect 238 0 115 0;
#X connect 239 0 120 0;
